<svg xml:space="preserve" style="enable-background:new 0 0 256.5 253.117;" viewBox="0 0 256.5 253.117" height="253.117px" width="256.5px" y="0px" x="0px" xmlns:xlink="http://www.w3.org/1999/xlink" xmlns="http://www.w3.org/2000/svg" id="Layer_1" version="1.1">
<g id="Layer_4">
	<g style="opacity:0.39;" id="Layer_4_2_">
		<path d="M247.842,121.503c0-39.901-32.425-72.247-72.422-72.247c-0.621,0-1.236,0.03-1.855,0.045
			c-12.629-21.166-35.779-35.36-62.269-35.36c-39.998,0-72.42,32.348-72.42,72.25c0,0.519,0.029,1.028,0.04,1.546
			c0,21.603-36.637,35.89-36.637,62.802c0,39.898,32.425,72.244,72.422,72.244c2.275,0,4.521-0.12,6.744-0.323
			c29.338,0,33.382,26.286,55.88,26.286c36.97,0,67.442-27.639,71.851-63.329C219.357,160.51,247.842,149.242,247.842,121.503z" style="fill:#F8CFFF;"></path>
	</g>
	<path d="M47.258,97.211" style="fill:#F8CFFF;"></path>
	<g style="opacity:0.44;" id="Layer_2_3_">
		<path d="M49.49,54.105c-1.181,0-2.367-0.416-3.32-1.263c-2.064-1.834-2.25-4.995-0.416-7.059
			c14.968-16.841,34.599-28.02,56.771-32.328c18.101-3.518,36.786-2.087,54.035,4.141c2.597,0.938,3.942,3.804,3.005,6.401
			c-0.938,2.598-3.798,3.942-6.401,3.005c-15.55-5.615-32.401-6.904-48.731-3.73c-20,3.886-37.707,13.968-51.205,29.155
			C52.242,53.538,50.869,54.105,49.49,54.105z" style="fill:#F59FB3;"></path>
		<path d="M37.697,95.021c-0.473,0-0.954-0.068-1.43-0.21c-2.646-0.789-4.152-3.574-3.363-6.22
			c10.143-34.025,38.079-59.366,72.907-66.135c40.085-7.792,80.549,10.819,100.692,46.311c1.363,2.401,0.521,5.453-1.881,6.816
			c-2.401,1.363-5.453,0.521-6.816-1.881c-18.021-31.751-54.228-48.398-90.087-41.43c-31.161,6.056-56.156,28.73-65.232,59.175
			C41.84,93.617,39.851,95.021,37.697,95.021z" style="fill:#FFFF75;"></path>
		<path d="M42.521,110.045c-0.213,0-0.429-0.014-0.646-0.042c-2.739-0.354-4.672-2.86-4.319-5.599
			c4.825-37.382,32.943-67.332,69.969-74.528c27.592-5.362,56.269,2.981,76.72,22.319c2.006,1.897,2.095,5.062,0.197,7.068
			c-1.896,2.006-5.061,2.097-7.068,0.198c-18.113-17.127-43.511-24.518-67.941-19.769c-32.788,6.372-57.687,32.892-61.959,65.992
			C47.147,108.207,44.997,110.045,42.521,110.045z" style="fill:#AFEB75;"></path>
		<path d="M194.63,95.912c-2.067,0-4.001-1.292-4.721-3.354c-11.311-32.418-45.306-51.917-79.066-45.354
			C93.164,50.639,77.696,60.62,67.289,75.307c-1.597,2.252-4.718,2.785-6.971,1.188s-2.785-4.717-1.188-6.971
			c11.902-16.795,29.59-28.209,49.806-32.138c18.919-3.675,38.504-0.382,55.156,9.275c16.49,9.564,29.013,24.693,35.26,42.601
			c0.91,2.607-0.467,5.458-3.073,6.368C195.731,95.821,195.176,95.912,194.63,95.912z" style="fill:#75D5EB;"></path>
	</g>
</g>
<g style="display:none;" id="Layer_5">
	<g style="display:inline;">
		<g>
			<path d="M113.474,75.247c0,1.898-1.554,3.453-3.453,3.453H36.586c-1.899,0-3.453-1.554-3.453-3.453V24.833
				c0-1.898,1.554-3.453,3.453-3.453h73.435c1.899,0,3.453,1.554,3.453,3.453V75.247z" style="fill:#E6EEFF;"></path>
			<path d="M113.474,75.247c0,1.898-1.554,3.453-3.453,3.453H36.586
				c-1.899,0-3.453-1.554-3.453-3.453V24.833c0-1.898,1.554-3.453,3.453-3.453h73.435c1.899,0,3.453,1.554,3.453,3.453V75.247z" style="fill:none;stroke:#CCCCDE;stroke-width:3;"></path>
		</g>
		<g>
			<rect height="13.456" width="80.326" style="fill:#D8D8F0;stroke:#CCCCDE;stroke-width:3;" y="32.127" x="33.133"></rect>
		</g>
		<rect height="11.036" width="68.663" style="fill:#FFE7D1;" y="56.03" x="39.105"></rect>
		<g>
			<polygon points="39.105,67.066 50.14,56.03 54.187,56.03 43.151,67.066" style="fill:#FFFFFF;"></polygon>
			<polygon points="49.822,67.066 60.856,56.03 64.902,56.03 53.868,67.066" style="fill:#FFFFFF;"></polygon>
			<polygon points="60.538,67.066 71.574,56.03 75.62,56.03 64.584,67.066" style="fill:#FFFFFF;"></polygon>
			<polygon points="71.254,67.066 82.289,56.03 86.335,56.03 75.3,67.066" style="fill:#FFFFFF;"></polygon>
			<polygon points="81.971,67.066 93.005,56.03 97.052,56.03 86.017,67.066" style="fill:#FFFFFF;"></polygon>
			<polygon points="92.688,67.066 103.722,56.03 107.768,56.03 96.733,67.066" style="fill:#FFFFFF;"></polygon>
		</g>
	</g>
	<g style="display:inline;">
		<path d="M159.443,20.168c0.723-2.219,2.992-4.945,5.045-6.057l0.009-0.005c2.052-1.112,2.052-2.931,0-4.043
			l-0.009-0.005c-2.053-1.112-4.438-3.617-5.301-5.567c-0.862-1.95-2.274-1.95-3.14,0c-0.86,1.951-3.248,4.456-5.3,5.567
			l-0.009,0.005c-2.054,1.112-2.054,2.931,0,4.043l0.009,0.005c2.052,1.112,4.32,3.838,5.045,6.057l0.512,1.567
			c0.723,2.22,1.903,2.22,2.627,0L159.443,20.168z" style="fill:#7FE5FF;"></path>
	</g>
	<g style="display:inline;">
		<path d="M13.748,114.131c0.615-1.887,2.546-4.207,4.292-5.152l0.007-0.004c1.746-0.946,1.746-2.494,0-3.439
			l-0.007-0.004c-1.746-0.946-3.775-3.077-4.508-4.737c-0.734-1.659-1.936-1.659-2.67,0c-0.733,1.66-2.763,3.791-4.509,4.737
			l-0.007,0.004c-1.746,0.945-1.746,2.493,0,3.439l0.007,0.004c1.746,0.945,3.677,3.265,4.292,5.152l0.435,1.333
			c0.615,1.889,1.621,1.889,2.235,0L13.748,114.131z" style="fill:#9ADFC0;"></path>
	</g>
	<g style="display:inline;">
		<path d="M246.137,151.816c1.022-3.143,4.236-7,7.143-8.574l0.013-0.006c2.906-1.576,2.906-4.152,0-5.726
			l-0.013-0.009c-2.904-1.573-6.282-5.121-7.504-7.883c-1.223-2.761-3.223-2.761-4.442,0c-1.222,2.762-4.601,6.31-7.504,7.883
			l-0.013,0.009c-2.905,1.571-2.905,4.147,0,5.726l0.013,0.006c2.903,1.574,6.119,5.434,7.144,8.574l0.723,2.221
			c1.022,3.143,2.697,3.143,3.722,0L246.137,151.816z" style="fill:#FFB0B8;"></path>
	</g>
	<g style="display:inline;">
		<polygon points="188.75,183.4 188.75,223.793 231.794,223.793 
			241.254,194.01 241.254,183.4 210.373,183.4 216.902,158.921 209.966,151.984" style="fill:#FFFFFF;stroke:#CCCCDE;stroke-width:3;"></polygon>
		<rect height="40.393" width="22.236" style="fill:#CFE4FF;stroke:#CCCCDE;stroke-width:3;" y="183.4" x="166.514"></rect>
	</g>
	<g style="display:inline;">
		<path d="M68.079,191.059v-25.332v-42.746c0-1.743-1.424-3.167-3.166-3.167
			H3.168c-1.741,0-3.167,1.424-3.167,3.167v42.746c0,1.742,1.425,3.168,3.167,3.168h42.43L68.079,191.059z" style="fill:#DFFFFD;stroke:#CCCCDE;stroke-width:3;"></path>
		<g style="opacity:0.55;">
			<rect height="3.166" width="43.38" style="fill:#CCCCDE;" y="134.695" x="12.351"></rect>
		</g>
		<g style="opacity:0.55;">
			<rect height="3.168" width="25.964" style="fill:#CCCCDE;" y="143.244" x="29.767"></rect>
		</g>
		<g style="opacity:0.55;">
			<rect height="3.166" width="31.981" style="fill:#CCCCDE;" y="151.479" x="23.75"></rect>
		</g>
	</g>
	<g style="display:inline;">
		<path d="M175.914,67.537l0.566-2.112
			C176.314,66.126,176.124,66.831,175.914,67.537z" style="opacity:0.25;fill:#997070;enable-background:new    ;"></path>
		<polygon points="160.395,52.059 182.928,68.431 174.32,94.923 196.855,78.55 219.391,94.923 210.468,68.431 233.318,52.059 205.148,52.059 
			196.855,25.567 188.248,52.059" style="fill:#FFEEA1;stroke:#CCCCDE;stroke-width:3;stroke-linecap:round;stroke-linejoin:round;"></polygon>
		<polygon points="183.82,70.774 186.27,64.115 165.229,53.63" style="opacity:0.15;fill:#6E6E96;enable-background:new    ;"></polygon>
		<polygon points="177.311,90.809 196.562,71.558 216.331,90.756 
			196.855,78.55" style="opacity:0.15;fill:#6E6E96;enable-background:new    ;"></polygon>
		<polygon points="228.427,53.63 209.825,61.368 211.3,65.903" style="opacity:0.15;fill:#6E6E96;enable-background:new    ;"></polygon>
		<polygon points="165.229,53.63 191.984,57.259 196.828,30.737 
			188.843,52.859" style="opacity:0.59;fill:#FFFFFF;enable-background:new    ;"></polygon>
	</g>
</g>
<g id="Layer_10">
</g>
<g id="Layer_11">
	<g>
		<path d="M235.005,123.735c0.724-2.219,2.993-4.945,5.045-6.057l0.009-0.005
			c2.053-1.112,2.053-2.931,0-4.043l-0.009-0.005c-2.052-1.112-4.438-3.617-5.3-5.567c-0.863-1.95-2.275-1.95-3.139,0
			c-0.863,1.951-3.248,4.456-5.303,5.567l-0.011,0.005c-2.054,1.112-2.054,2.931,0,4.043l0.011,0.005
			c2.055,1.112,4.32,3.838,5.045,6.057l0.514,1.567c0.723,2.22,1.9,2.22,2.627,0L235.005,123.735z" style="fill:#7FE5FF;"></path>
	</g>
	<g>
		<path d="M56.274,24.536c1.023-3.142,4.237-7.002,7.146-8.575l0.012-0.007c2.906-1.575,2.906-4.151,0-5.725
			l-0.012-0.007c-2.905-1.575-6.283-5.121-7.507-7.884c-1.221-2.761-3.221-2.761-4.44,0c-1.221,2.763-4.601,6.309-7.504,7.884
			l-0.015,0.007c-2.903,1.573-2.903,4.149,0,5.725l0.015,0.007c2.903,1.573,6.119,5.434,7.146,8.575l0.723,2.22
			c1.023,3.144,2.697,3.144,3.721,0L56.274,24.536z" style="fill:#FFB0B8;"></path>
	</g>
	<g>
		<path d="M13.748,138.473c0.615-1.887,2.546-4.207,4.292-5.151l0.007-0.005c1.746-0.943,1.746-2.493,0-3.438
			l-0.007-0.005c-1.746-0.944-3.775-3.076-4.508-4.736c-0.734-1.659-1.936-1.659-2.67,0c-0.733,1.66-2.763,3.792-4.509,4.736
			l-0.007,0.005c-1.746,0.943-1.746,2.493,0,3.438l0.007,0.005c1.746,0.944,3.677,3.267,4.292,5.151l0.435,1.334
			c0.615,1.89,1.621,1.89,2.235,0L13.748,138.473z" style="fill:#9ADFC0;"></path>
	</g>
	<g id="Layer_7_1_">
		<path d="M152.127,245.838c1.078-3.307,4.459-7.369,7.52-9.027l0.016-0.006c3.061-1.66,3.061-4.371,0-6.022
			l-0.016-0.013c-3.061-1.655-6.612-5.391-7.898-8.299c-1.286-2.901-3.396-2.901-4.686,0c-1.279,2.908-4.84,6.644-7.899,8.299
			l-0.013,0.013c-3.061,1.651-3.061,4.362,0,6.022l0.013,0.006c3.062,1.658,6.442,5.729,7.521,9.027l0.768,2.336
			c1.072,3.311,2.841,3.311,3.912,0L152.127,245.838z" style="fill:#DEC2FF;"></path>
	</g>
</g>
<g style="display:none;" id="Layer_3_3_">
	<g style="display:inline;">
		<path d="M149.68,63.022c0-6.961-10.553-12.896-10.553-24.376
			c0-10.757,8.721-19.479,19.479-19.479c10.759,0,19.479,8.721,19.479,19.479c0,11.223-10.75,14.451-10.888,23.937" style="fill:#FFF8BD;stroke:#CCCCDE;"></path>
		<path d="M167.154,61.849c0,0,0,3.213,0,5.877c0,4.928-4.924,6.911-8.473,6.911l0,0
			c-3.546,0-9.143-1.81-9.143-6.911c0-2.664,0-5.877,0-5.877" style="fill:#F0F0FF;"></path>
		<path d="M149.557,61.533c0-6.961-10.412-11.723-10.412-23.204
			c0-10.757,8.723-19.479,19.479-19.479c10.758,0,19.479,8.721,19.479,19.479c0,11.223-10.808,14.036-10.945,23.52" style="fill:none;stroke:#CCCCDE;stroke-width:3;"></path>
		<path d="M167.172,61.533c0,0,0,3.212,0,5.877c0,4.929-4.923,6.909-8.471,6.909
			l0,0c-3.549,0-9.145-1.808-9.145-6.909c0-2.665,0-5.877,0-5.877" style="fill:none;stroke:#CCCCDE;stroke-width:3;"></path>
		<line y2="61.517" x2="167.172" y1="61.517" x1="149.529" style="fill:none;stroke:#CCCCDE;stroke-width:3;"></line>
		<line y2="2.004" x2="158.622" y1="10.469" x1="158.622" style="fill:none;stroke:#CCCCDE;stroke-width:3;"></line>
		<line y2="6.779" x2="140.802" y1="14.109" x1="145.034" style="fill:none;stroke:#CCCCDE;stroke-width:3;"></line>
		<line y2="19.825" x2="127.756" y1="24.057" x1="135.088" style="fill:none;stroke:#CCCCDE;stroke-width:3;"></line>
		<line y2="37.645" x2="122.982" y1="37.645" x1="131.445" style="fill:none;stroke:#CCCCDE;stroke-width:3;"></line>
		<line y2="55.466" x2="127.758" y1="51.233" x1="135.088" style="fill:none;stroke:#CCCCDE;stroke-width:3;"></line>
		<line y2="55.466" x2="189.488" y1="51.233" x1="182.158" style="fill:none;stroke:#CCCCDE;stroke-width:3;"></line>
		<line y2="37.645" x2="194.266" y1="37.645" x1="185.8" style="fill:none;stroke:#CCCCDE;stroke-width:3;"></line>
		<line y2="19.825" x2="189.488" y1="24.057" x1="182.158" style="fill:none;stroke:#CCCCDE;stroke-width:3;"></line>
		<line y2="6.778" x2="176.441" y1="14.109" x1="172.21" style="fill:none;stroke:#CCCCDE;stroke-width:3;"></line>
	</g>
	<g style="display:inline;">
		<path d="M20.565,51.029c-1.744,1.969-1.749,5.27-0.01,7.336l17.614,20.926
			c1.739,2.065,4.653,2.126,6.476,0.133l37.154-40.626c1.823-1.993,1.934-4.82,0.245-6.284c-1.688-1.463-4.799-1.285-6.916,0.393
			L45.179,56.673c-2.116,1.679-5.66,1.788-7.874,0.241l-9.541-6.655C25.548,48.713,22.31,49.06,20.565,51.029z" style="fill:#DFFFD9;"></path>
		<path d="M20.565,51.029c-1.744,1.969-1.749,5.27-0.01,7.336l17.614,20.926
			c1.739,2.065,4.653,2.126,6.476,0.133l37.154-40.626c1.823-1.993,1.934-4.82,0.245-6.284c-1.688-1.463-4.799-1.285-6.916,0.393
			L45.179,56.673c-2.116,1.679-5.66,1.788-7.874,0.241l-9.541-6.655C25.548,48.713,22.31,49.06,20.565,51.029z" style="fill:none;stroke:#CCCCDE;stroke-width:3;"></path>
	</g>
</g>
<g style="display:none;" id="Layer_2_1_">
	<circle r="73.213" cy="132.114" cx="123.671" style="display:inline;fill:#E0ECFF;"></circle>
	<circle r="61.155" cy="132.03" cx="123.755" style="display:inline;fill:#F2FAFF;"></circle>
	
		<line y2="92.822" x2="101.235" y1="85.229" x1="96.852" style="display:inline;fill:none;stroke:#6E6E96;stroke-width:3;stroke-linecap:round;stroke-linejoin:round;"></line>
	
		<line y2="109.362" x2="84.695" y1="104.979" x1="77.104" style="display:inline;fill:none;stroke:#6E6E96;stroke-width:3;stroke-linecap:round;stroke-linejoin:round;"></line>
	
		<line y2="154.549" x2="84.695" y1="158.934" x1="77.104" style="display:inline;fill:none;stroke:#6E6E96;stroke-width:3;stroke-linecap:round;stroke-linejoin:round;"></line>
	
		<line y2="171.089" x2="101.235" y1="178.684" x1="96.854" style="display:inline;fill:none;stroke:#6E6E96;stroke-width:3;stroke-linecap:round;stroke-linejoin:round;"></line>
	
		<line y2="171.089" x2="146.424" y1="178.682" x1="150.809" style="display:inline;fill:none;stroke:#6E6E96;stroke-width:3;stroke-linecap:round;stroke-linejoin:round;"></line>
	
		<line y2="154.549" x2="162.966" y1="158.932" x1="170.557" style="display:inline;fill:none;stroke:#6E6E96;stroke-width:3;stroke-linecap:round;stroke-linejoin:round;"></line>
	
		<line y2="109.361" x2="162.965" y1="104.977" x1="170.555" style="display:inline;fill:none;stroke:#6E6E96;stroke-width:3;stroke-linecap:round;stroke-linejoin:round;"></line>
	
		<line y2="92.821" x2="146.423" y1="85.229" x1="150.807" style="display:inline;fill:none;stroke:#6E6E96;stroke-width:3;stroke-linecap:round;stroke-linejoin:round;"></line>
	<g style="display:inline;opacity:0.39;">
		
			<line y2="80.629" x2="123.829" y1="78" x1="123.829" style="fill:none;stroke:#6E6E96;stroke-width:3;stroke-linecap:round;stroke-linejoin:round;"></line>
		
			<line y2="81.408" x2="114.917" y1="78.82" x1="114.46" style="fill:none;stroke:#6E6E96;stroke-width:3;stroke-linecap:round;stroke-linejoin:round;"></line>
		
			<line y2="83.724" x2="106.274" y1="81.254" x1="105.376" style="fill:none;stroke:#6E6E96;stroke-width:3;stroke-linecap:round;stroke-linejoin:round;"></line>
		
			<line y2="87.505" x2="98.166" y1="85.229" x1="96.853" style="fill:none;stroke:#6E6E96;stroke-width:3;stroke-linecap:round;stroke-linejoin:round;"></line>
		
			<line y2="92.638" x2="90.837" y1="90.625" x1="89.148" style="fill:none;stroke:#6E6E96;stroke-width:3;stroke-linecap:round;stroke-linejoin:round;"></line>
		
			<line y2="98.964" x2="84.51" y1="97.274" x1="82.499" style="fill:none;stroke:#6E6E96;stroke-width:3;stroke-linecap:round;stroke-linejoin:round;"></line>
		
			<line y2="106.292" x2="79.378" y1="104.978" x1="77.104" style="fill:none;stroke:#6E6E96;stroke-width:3;stroke-linecap:round;stroke-linejoin:round;"></line>
		
			<line y2="114.402" x2="75.598" y1="113.501" x1="73.129" style="fill:none;stroke:#6E6E96;stroke-width:3;stroke-linecap:round;stroke-linejoin:round;"></line>
		
			<line y2="123.044" x2="73.282" y1="122.586" x1="70.695" style="fill:none;stroke:#6E6E96;stroke-width:3;stroke-linecap:round;stroke-linejoin:round;"></line>
		
			<line y2="131.956" x2="72.502" y1="131.955" x1="69.875" style="fill:none;stroke:#6E6E96;stroke-width:3;stroke-linecap:round;stroke-linejoin:round;"></line>
		
			<line y2="140.869" x2="73.283" y1="141.325" x1="70.695" style="fill:none;stroke:#6E6E96;stroke-width:3;stroke-linecap:round;stroke-linejoin:round;"></line>
		
			<line y2="149.512" x2="75.599" y1="150.409" x1="73.129" style="fill:none;stroke:#6E6E96;stroke-width:3;stroke-linecap:round;stroke-linejoin:round;"></line>
		
			<line y2="157.619" x2="79.38" y1="158.934" x1="77.104" style="fill:none;stroke:#6E6E96;stroke-width:3;stroke-linecap:round;stroke-linejoin:round;"></line>
		
			<line y2="164.947" x2="84.512" y1="166.637" x1="82.499" style="fill:none;stroke:#6E6E96;stroke-width:3;stroke-linecap:round;stroke-linejoin:round;"></line>
		
			<line y2="171.273" x2="90.838" y1="173.288" x1="89.148" style="fill:none;stroke:#6E6E96;stroke-width:3;stroke-linecap:round;stroke-linejoin:round;"></line>
		
			<line y2="176.406" x2="98.167" y1="178.684" x1="96.853" style="fill:none;stroke:#6E6E96;stroke-width:3;stroke-linecap:round;stroke-linejoin:round;"></line>
		
			<line y2="180.188" x2="106.276" y1="182.656" x1="105.376" style="fill:none;stroke:#6E6E96;stroke-width:3;stroke-linecap:round;stroke-linejoin:round;"></line>
		
			<line y2="182.503" x2="114.918" y1="185.092" x1="114.461" style="fill:none;stroke:#6E6E96;stroke-width:3;stroke-linecap:round;stroke-linejoin:round;"></line>
		
			<line y2="183.283" x2="123.83" y1="185.91" x1="123.83" style="fill:none;stroke:#6E6E96;stroke-width:3;stroke-linecap:round;stroke-linejoin:round;"></line>
		
			<line y2="182.503" x2="132.743" y1="185.092" x1="133.199" style="fill:none;stroke:#6E6E96;stroke-width:3;stroke-linecap:round;stroke-linejoin:round;"></line>
		
			<line y2="180.186" x2="141.387" y1="182.656" x1="142.284" style="fill:none;stroke:#6E6E96;stroke-width:3;stroke-linecap:round;stroke-linejoin:round;"></line>
		
			<line y2="176.404" x2="149.494" y1="178.684" x1="150.809" style="fill:none;stroke:#6E6E96;stroke-width:3;stroke-linecap:round;stroke-linejoin:round;"></line>
		
			<line y2="171.273" x2="156.822" y1="173.288" x1="158.514" style="fill:none;stroke:#6E6E96;stroke-width:3;stroke-linecap:round;stroke-linejoin:round;"></line>
		
			<line y2="164.945" x2="163.146" y1="166.637" x1="165.163" style="fill:none;stroke:#6E6E96;stroke-width:3;stroke-linecap:round;stroke-linejoin:round;"></line>
		
			<line y2="157.618" x2="168.279" y1="158.934" x1="170.557" style="fill:none;stroke:#6E6E96;stroke-width:3;stroke-linecap:round;stroke-linejoin:round;"></line>
		
			<line y2="149.51" x2="172.062" y1="150.409" x1="174.529" style="fill:none;stroke:#6E6E96;stroke-width:3;stroke-linecap:round;stroke-linejoin:round;"></line>
		
			<line y2="140.865" x2="174.376" y1="141.325" x1="176.965" style="fill:none;stroke:#6E6E96;stroke-width:3;stroke-linecap:round;stroke-linejoin:round;"></line>
		
			<line y2="131.954" x2="175.154" y1="131.955" x1="177.784" style="fill:none;stroke:#6E6E96;stroke-width:3;stroke-linecap:round;stroke-linejoin:round;"></line>
		
			<line y2="123.042" x2="174.375" y1="122.586" x1="176.965" style="fill:none;stroke:#6E6E96;stroke-width:3;stroke-linecap:round;stroke-linejoin:round;"></line>
		
			<line y2="114.401" x2="172.061" y1="113.501" x1="174.529" style="fill:none;stroke:#6E6E96;stroke-width:3;stroke-linecap:round;stroke-linejoin:round;"></line>
		
			<line y2="106.292" x2="168.277" y1="104.978" x1="170.557" style="fill:none;stroke:#6E6E96;stroke-width:3;stroke-linecap:round;stroke-linejoin:round;"></line>
		
			<line y2="98.964" x2="163.146" y1="97.274" x1="165.163" style="fill:none;stroke:#6E6E96;stroke-width:3;stroke-linecap:round;stroke-linejoin:round;"></line>
		
			<line y2="92.639" x2="156.82" y1="90.624" x1="158.514" style="fill:none;stroke:#6E6E96;stroke-width:3;stroke-linecap:round;stroke-linejoin:round;"></line>
		
			<line y2="87.507" x2="149.491" y1="85.229" x1="150.809" style="fill:none;stroke:#6E6E96;stroke-width:3;stroke-linecap:round;stroke-linejoin:round;"></line>
		
			<line y2="83.726" x2="141.383" y1="81.254" x1="142.284" style="fill:none;stroke:#6E6E96;stroke-width:3;stroke-linecap:round;stroke-linejoin:round;"></line>
		
			<line y2="81.41" x2="132.741" y1="78.82" x1="133.199" style="fill:none;stroke:#6E6E96;stroke-width:3;stroke-linecap:round;stroke-linejoin:round;"></line>
	</g>
	
		<line y2="86.768" x2="123.829" y1="78" x1="123.829" style="display:inline;fill:none;stroke:#FF9FB0;stroke-width:3;stroke-linecap:round;stroke-linejoin:round;"></line>
	
		<line y2="131.955" x2="78.642" y1="131.956" x1="69.875" style="display:inline;fill:none;stroke:#FF9FB0;stroke-width:3;stroke-linecap:round;stroke-linejoin:round;"></line>
	
		<line y2="177.145" x2="123.829" y1="185.91" x1="123.831" style="display:inline;fill:none;stroke:#FF9FB0;stroke-width:3;stroke-linecap:round;stroke-linejoin:round;"></line>
	
		<line y2="131.954" x2="169.02" y1="131.953" x1="177.783" style="display:inline;fill:none;stroke:#FF9FB0;stroke-width:3;stroke-linecap:round;stroke-linejoin:round;"></line>
	<polyline points="144.8,111.131 123.755,132.029 150.587,158.861" style="display:inline;fill:none;stroke:#6E6E96;stroke-width:3;stroke-linecap:round;stroke-linejoin:round;"></polyline>
	
		<line y2="151.391" x2="90.458" y1="132.029" x1="123.755" style="display:inline;fill:none;stroke:#FF9FB0;stroke-linecap:round;stroke-linejoin:round;"></line>
	
		<circle r="4.095" cy="132.124" cx="123.711" style="display:inline;fill:#F0F0FF;stroke:#6E6E96;stroke-width:3;stroke-linecap:round;stroke-linejoin:round;"></circle>
	<path d="M54.03,143.293
		c-4.725-38.847,22.938-74.168,61.787-78.893c38.847-4.723,74.169,22.938,78.894,61.785c0.626,5.135,0.668,10.208,0.21,15.154
		c0.938-6.291,1.076-12.808,0.271-19.427c-4.812-39.591-40.812-67.784-80.404-62.969c-39.594,4.815-67.785,40.813-62.97,80.405
		c1.345,11.058,5.125,21.226,10.733,30.03C58.159,161.55,55.181,152.757,54.03,143.293z" style="display:inline;opacity:0.58;fill:#FFFFFF;enable-background:new    ;"></path>
	<circle r="73.213" cy="132.114" cx="123.671" style="display:inline;fill:none;stroke:#6E6E96;stroke-width:3;"></circle>
	<circle r="61.155" cy="132.03" cx="123.755" style="display:inline;fill:none;stroke:#6E6E96;stroke-width:3;"></circle>
	<path d="M188.691,102.172
		c3.412,8.301,5.307,17.388,5.307,26.919c0,39.136-31.725,70.858-70.859,70.858s-70.858-31.725-70.858-70.858
		c0-5.171,0.568-10.208,1.621-15.065c-1.693,6.131-2.615,12.581-2.615,19.251c0,39.883,32.332,72.215,72.216,72.215
		c39.886,0,72.216-32.332,72.216-72.215C195.719,122.139,193.193,111.593,188.691,102.172z" style="display:inline;opacity:0.15;fill:#6E6E96;enable-background:new    ;"></path>
	<path d="M163.564,93.552
		c-10.146-10.339-24.27-16.759-39.898-16.759c-30.875,0-55.905,25.03-55.905,55.906c0,10.729,3.028,20.751,8.271,29.263
		L163.564,93.552z" style="display:inline;opacity:0.54;fill:#FFFFFF;enable-background:new    ;"></path>
	<g style="display:inline;opacity:0.1;">
		<g>
			<path d="M139.875,72.35c22.191,8.236,38.008,29.597,38.008,54.656c0,32.188-26.094,58.284-58.283,58.284
				c-30.766,0-55.946-23.843-58.115-54.056c0.114,33.677,27.445,60.944,61.149,60.944c33.775,0,61.155-27.382,61.155-61.153
				C183.789,103.238,165.252,79.795,139.875,72.35z" style="fill:#6E6E96;"></path>
		</g>
	</g>
</g>
<g id="Layer_12">
	<path d="M208.594,204.559H38.083c-0.829,0-1.5-0.672-1.5-1.5s0.671-1.5,1.5-1.5h170.511
		c0.828,0,1.5,0.672,1.5,1.5S209.422,204.559,208.594,204.559z" style="fill:#CCCCDE;"></path>
	<path d="M29.375,204.559h-6.411c-0.829,0-1.5-0.672-1.5-1.5s0.671-1.5,1.5-1.5h6.411
		c0.829,0,1.5,0.672,1.5,1.5S30.204,204.559,29.375,204.559z" style="fill:#CCCCDE;"></path>
	<path d="M220.75,204.559h-4c-0.828,0-1.5-0.672-1.5-1.5s0.672-1.5,1.5-1.5h4c0.828,0,1.5,0.672,1.5,1.5
		S221.578,204.559,220.75,204.559z" style="fill:#CCCCDE;"></path>
</g>
<g id="Layer_6">
	<rect height="99.363" width="130.867" style="fill:#F5D8BD;" y="103.816" x="57.391"></rect>
	<polygon points="175.331,73.121 70.317,73.121 57.391,103.816 188.258,103.816" style="fill:#FFEBC5;"></polygon>
	<rect height="7.944" width="130.867" style="opacity:0.15;fill:#6E6E96;enable-background:new    ;" y="195.234" x="57.391"></rect>
	<rect height="3.903" width="130.867" style="opacity:0.4;fill:#FFFFFF;enable-background:new    ;" y="103.816" x="57.391"></rect>
	<path d="M188.258,204.679H57.391c-0.829,0-1.5-0.672-1.5-1.5v-99.363c0-0.829,0.671-1.5,1.5-1.5h130.867
		c0.828,0,1.5,0.671,1.5,1.5v99.363C189.758,204.007,189.086,204.679,188.258,204.679z M58.891,201.679h127.867v-96.363H58.891
		V201.679z" style="fill:#6E6E96;"></path>
	<path d="M188.258,105.316H57.391c-0.502,0-0.972-0.251-1.25-0.67c-0.278-0.418-0.328-0.949-0.133-1.412
		l12.926-30.695c0.234-0.556,0.779-0.918,1.382-0.918h105.014c0.604,0,1.148,0.362,1.383,0.918l12.927,30.695
		c0.194,0.463,0.145,0.993-0.133,1.412C189.229,105.064,188.761,105.316,188.258,105.316z M59.65,102.316h126.348l-11.663-27.695
		H71.313L59.65,102.316z" style="fill:#6E6E96;"></path>
	<path d="M141.428,177.852c0,2.258,1.729,4.129,3.93,4.354v4.933
		h-1.076v1.484h3.638v-1.484h-1.077v-4.933c2.198-0.228,3.928-2.101,3.928-4.354v-4.75h-9.34v4.75H141.428z" style="opacity:0.34;fill:#6E6E96;enable-background:new    ;"></path>
	<path d="M179.059,179.312c0-3.22-3.086-5.83-6.895-5.83
		c-3.807,0-6.895,2.61-6.895,5.83h6.082v6.912c-0.02,0.161-0.279,2.231-2.229,2.231v1.621c2.778,0,3.731-2.474,3.849-3.78
		c0.002-0.046,0.004-4.08,0.004-6.984H179.059L179.059,179.312z" style="opacity:0.34;fill:#6E6E96;enable-background:new    ;"></path>
	<path d="M155.35,193.75h-18.5c-0.828,0-1.5-0.672-1.5-1.5v-22.775
		c0-0.828,0.672-1.5,1.5-1.5h18.5c0.828,0,1.5,0.672,1.5,1.5v22.775C156.85,193.078,156.178,193.75,155.35,193.75z M138.35,190.75
		h15.5v-19.775h-15.5V190.75z" style="opacity:0.34;fill:#6E6E96;enable-background:new    ;"></path>
	<path d="M181.339,193.75h-18.501c-0.828,0-1.5-0.672-1.5-1.5
		v-22.775c0-0.828,0.672-1.5,1.5-1.5h18.501c0.828,0,1.5,0.672,1.5,1.5v22.775C182.839,193.078,182.167,193.75,181.339,193.75z
		 M164.338,190.75h15.501v-19.775h-15.501V190.75z" style="opacity:0.34;fill:#6E6E96;enable-background:new    ;"></path>
	<g>
		<polygon points="70.317,73.121 45.381,60.038 28.417,84.051 57.391,103.816" style="fill:#FFEBC5;"></polygon>
		<path d="M57.391,105.316c-0.298,0-0.593-0.089-0.845-0.261L27.572,85.29
			c-0.332-0.227-0.56-0.577-0.631-0.973c-0.071-0.396,0.019-0.804,0.251-1.132l16.964-24.013c0.433-0.614,1.257-0.812,1.922-0.462
			l24.936,13.083c0.69,0.362,0.988,1.192,0.686,1.91l-12.926,30.695c-0.175,0.415-0.526,0.729-0.958,0.857
			C57.676,105.296,57.533,105.316,57.391,105.316z M30.522,83.671l26.199,17.872l11.679-27.734L45.848,61.977L30.522,83.671z" style="fill:#6E6E96;"></path>
	</g>
	<g>
		<polygon points="199.938,59.206 214.979,86.799 188.258,103.816 175.331,73.121" style="fill:#FFEBC5;"></polygon>
		<path d="M188.258,105.316c-0.15,0-0.301-0.022-0.447-0.068c-0.422-0.131-0.764-0.442-0.936-0.85
			l-12.927-30.695c-0.295-0.701-0.019-1.513,0.645-1.888L199.199,57.9c0.351-0.198,0.766-0.247,1.15-0.137
			c0.387,0.111,0.713,0.372,0.905,0.725l15.041,27.593c0.377,0.692,0.153,1.559-0.512,1.983l-26.721,17.017
			C188.82,105.236,188.54,105.316,188.258,105.316z M177.231,73.77l11.719,27.827l24.041-15.31L199.35,61.262L177.231,73.77z" style="fill:#6E6E96;"></path>
	</g>
	<g>
		<polygon points="57.391,103.816 51.158,124.512 195.875,124.512 188.258,103.816" style="fill:#FFEBC5;"></polygon>
		<path d="M195.875,126.012H51.158c-0.475,0-0.921-0.225-1.204-0.605c-0.283-0.38-0.369-0.873-0.232-1.327
			l6.233-20.696c0.19-0.634,0.774-1.067,1.436-1.067h130.867c0.629,0,1.19,0.392,1.407,0.982l7.617,20.696
			c0.17,0.46,0.104,0.974-0.177,1.376C196.825,125.772,196.365,126.012,195.875,126.012z M53.176,123.012h140.548l-6.513-17.696
			H58.506L53.176,123.012z" style="fill:#6E6E96;"></path>
	</g>
	<g>
		<polygon points="70.317,73.121 75.633,63.082 168.113,63.082 176.32,73.121" style="fill:#FFEBC5;"></polygon>
		<path d="M176.34,74.621c-0.005,0-0.013,0.001-0.02,0H70.317c-0.526,0-1.014-0.275-1.285-0.727
			c-0.271-0.451-0.287-1.01-0.041-1.476l5.316-10.039c0.26-0.491,0.77-0.798,1.326-0.798h92.48c0.45,0,0.876,0.202,1.161,0.551
			l8.079,9.882c0.299,0.274,0.486,0.668,0.486,1.106C177.84,73.95,177.169,74.621,176.34,74.621z M72.809,71.621h100.348
			l-5.754-7.039H76.536L72.809,71.621z" style="fill:#6E6E96;"></path>
	</g>
	<g>
		<g>
			<path d="M101.328,152.195c-1.318,1.488-1.322,3.982-0.007,5.547l13.316,15.82
				c1.315,1.562,3.519,1.606,4.895,0.1l28.091-30.715c1.378-1.508,1.461-3.646,0.188-4.75c-1.274-1.105-3.629-0.973-5.228,0.295
				l-22.645,17.969c-1.599,1.27-4.28,1.35-5.953,0.182l-7.213-5.031C105.093,150.443,102.644,150.709,101.328,152.195z" style="fill:#80FFB3;"></path>
			<path d="M117.124,176.264c-1.381,0-2.706-0.633-3.634-1.735l-13.316-15.82
				c-1.807-2.15-1.793-5.447,0.032-7.507c1.023-1.156,2.547-1.818,4.182-1.818c1.182,0,2.303,0.345,3.241,0.997l7.215,5.032
				c1.086,0.76,3.126,0.696,4.162-0.126l22.645-17.969c1.098-0.871,2.527-1.37,3.923-1.37c1.246,0,2.391,0.396,3.22,1.117
				c0.843,0.73,1.345,1.778,1.413,2.95c0.08,1.393-0.457,2.83-1.476,3.944l-28.091,30.716
				C119.704,175.699,118.455,176.264,117.124,176.264z M104.387,152.383c-0.765,0-1.489,0.302-1.936,0.807
				c-0.819,0.925-0.811,2.602,0.018,3.588l13.315,15.819c0.708,0.841,1.9,0.865,2.64,0.054l28.092-30.716
				c0.468-0.513,0.728-1.165,0.694-1.746c-0.015-0.253-0.093-0.606-0.383-0.858c-0.281-0.243-0.738-0.383-1.255-0.383
				c-0.731,0-1.481,0.263-2.059,0.721l-22.644,17.968c-1.083,0.859-2.522,1.333-4.055,1.333c-1.367,0-2.677-0.39-3.689-1.096
				l-7.213-5.031C105.489,152.546,104.946,152.383,104.387,152.383z" style="fill:#6E6E96;"></path>
		</g>
		<path d="M143.43,142.396l-23.692,25.904
			c-1.377,1.506-3.58,1.459-4.895-0.101l-13.515-16.007c-0.926,0.134-3.149,1.893-2.036,4.33c0.826,1.811,0.921,3.985,2.235,5.549
			l13.316,15.82c1.315,1.561,3.519,1.604,4.895,0.098l28.09-30.715c1.38-1.506,1.256-7.977-0.02-9.079
			C146.693,137.23,147.809,138.197,143.43,142.396z" style="opacity:0.15;fill:#6E6E96;enable-background:new    ;"></path>
	</g>
	<rect height="4.874" width="130.75" style="opacity:0.15;fill:#6E6E96;enable-background:new    ;" y="125.103" x="57.508"></rect>
	<polygon points="67.267,80.363 178.382,80.363 175.331,73.121 
		70.317,73.121" style="opacity:0.15;fill:#6E6E96;enable-background:new    ;"></polygon>
	<polygon points="66.023,70.868 51.69,99.928 57.391,103.816 
		70.317,73.121" style="opacity:0.15;fill:#6E6E96;enable-background:new    ;"></polygon>
	<polygon points="176.32,73.121 188.258,103.816 193.324,100.59 
		180.173,70.381" style="opacity:0.15;fill:#6E6E96;enable-background:new    ;"></polygon>
	<polygon points="72.616,68.778 171.979,68.778 175.331,73.121 
		70.317,73.121" style="opacity:0.15;fill:#6E6E96;enable-background:new    ;"></polygon>
</g>
<g id="Layer_7">
</g>
<g id="Layer_8">
</g>
<g id="Layer_9">
</g>
</svg>
