<svg xml:space="preserve" style="enable-background:new -350 0 1000 1000;" viewBox="-350 0 1000 1000" y="0px" x="0px" xmlns:xlink="http://www.w3.org/1999/xlink" xmlns="http://www.w3.org/2000/svg" id="图层_1" version="1.1">
<style type="text/css">
	.st0{fill:#FFFFFF;}
	.st1{fill:#3E3A39;}
	.st2{clip-path:url(#SVGID_2_);}
	.st3{fill:#E4547D;}
</style>
<g id="XMLID_4925_">
	<g id="XMLID_4932_">
		<path d="M522.3,728.7h-1.1c-22,0-38.9,19.2-36.6,41.2l0,0c3.9,33.8-35.5,54.1-60.9,31.6l-71-63.1
			c-6.8-6.2-15.2-9.6-24.2-9.6h-528.9c-20.3,0-36.6-16.4-36.6-36.6v-486c0-20.3,16.4-36.6,36.6-36.6h723.4
			c20.3,0,36.6,16.4,36.6,36.6v485.4C559.5,711.8,542.6,728.7,522.3,728.7z" class="st0"></path>
		<path d="M448.4,813.3c-9.6,0-18.6-3.4-25.9-10.1l-71-63.1c-6.2-5.6-14.1-8.5-22.6-8.5h-529.4
			c-22,0-39.5-17.5-39.5-39.5v-486c0-22,17.5-39.5,39.5-39.5h723.4c22,0,39.5,17.5,39.5,39.5v485.4c0,22-17.5,39.5-39.5,39.5h-1.7
			c-9.6,0-19.2,3.9-25.4,11.3s-9.6,16.9-8.5,26.5c2.3,16.9-6.2,32.1-20.9,39.5C460.8,812.2,454.6,813.3,448.4,813.3z M-200.5,172.2
			c-18.6,0-33.8,15.2-33.8,33.8v485.4c0,18.6,15.2,33.8,33.8,33.8h529.4c9.6,0,19.2,3.4,26.5,10.1l71,63.1
			c13,11.3,28.2,10.1,38.3,5.1c10.1-5.1,20.3-16.9,18-33.8c-1.1-11.3,2.3-22.6,9.6-31c7.3-8.5,18-13.5,29.3-13.5h1.1
			c18.6,0,33.8-15.2,33.8-33.8V206.1c0-18.6-15.2-33.8-33.8-33.8H-200.5z" class="st1"></path>
	</g>
	<g id="XMLID_4926_">
		<g id="XMLID_4927_">
			<g>
				<defs>
					<rect height="253.2" width="272.9" y="327.8" x="24.4" id="SVGID_1_"></rect>
				</defs>
				<clipPath id="SVGID_2_">
					<use style="overflow:visible;" xlink:href="#SVGID_1_"></use>
				</clipPath>
				<g class="st2" id="XMLID_4929_">
					<path d="M210.5,327.8c53,0,86.8,42.3,86.8,99.2c0,44-40,93-119,147.7c-10.7,7.3-24.8,7.3-35,0
						c-78.9-54.7-119-103.2-119-147.7c0-56.9,33.8-99.2,86.8-99.2c19.2,0,32.1,6.8,49.6,22C178.9,334.6,191.9,327.8,210.5,327.8
						L210.5,327.8z" class="st3"></path>
				</g>
			</g>
		</g>
	</g>
</g>
</svg>
