<svg xml:space="preserve" style="enable-background:new -350 0 1000 1000;" viewBox="-350 0 1000 1000" y="0px" x="0px" xmlns:xlink="http://www.w3.org/1999/xlink" xmlns="http://www.w3.org/2000/svg" id="图层_1" version="1.1">
<style type="text/css">
	.st0{fill:#FBF7E5;}
	.st1{fill:#3E3A39;}
</style>
<g id="XMLID_171_">
	<g id="XMLID_26_">
		<path d="M411.8,646.5h-537.9c-19.5,0-35-15.9-35-35V303.4c0-19.5,15.9-35,35-35h537.9c19.5,0,35,15.9,35,35v308.1
			C447.2,631,431.3,646.5,411.8,646.5z" class="st0"></path>
		<path d="M411.8,648.7h-537.9c-20.8,0-37.2-16.8-37.2-37.2V303.4c0-20.8,16.8-37.2,37.2-37.2h537.9
			c20.8,0,37.2,16.8,37.2,37.2v308.1C449.4,632.3,432.6,648.7,411.8,648.7z M-126.1,270.6c-18.2,0-32.8,14.6-32.8,32.8v308.1
			c0,18.2,14.6,32.8,32.8,32.8h537.9c18.2,0,32.8-14.6,32.8-32.8V303.4c0-18.2-14.6-32.8-32.8-32.8H-126.1z" class="st1"></path>
	</g>
	<g id="XMLID_173_">
		<polyline points="-148.7,636.3 143.1,413.6 434.8,636.3" class="st0"></polyline>
		<polygon points="433.1,638.1 143.1,416.7 -147.4,638.1 -150,634.5 143.1,411 144.4,411.9 436.2,634.5" class="st1"></polygon>
	</g>
	<g id="XMLID_172_">
		<polyline points="434.8,280.8 143.1,503.5 -148.7,280.8" class="st0"></polyline>
		<polygon points="143.1,506.2 -150,282.6 -147.4,279 143.1,500.8 433.1,279 436.2,282.6" class="st1"></polygon>
	</g>
</g>
</svg>
