<?xml version="1.0" encoding="utf-8"?>
<!-- Generator: Adobe Illustrator 24.0.0, SVG Export Plug-In . SVG Version: 6.00 Build 0)  -->
<svg version="1.1" id="图层_1" xmlns="http://www.w3.org/2000/svg" xmlns:xlink="http://www.w3.org/1999/xlink" x="0px" y="0px"
	 viewBox="0 0 100 100" style="enable-background:new 0 0 100 100;" xml:space="preserve">
<style type="text/css">
	.st0{fill:#FBCE97;}
	.st1{fill:#F1A249;}
</style>
<path class="st0" d="M28.15,15.35c2.69-2.5,6.18-4.01,9.92-3.61c7.33,0.78,15.5,8.83,14.7,16.57c0.51-4.95,7.72-9.92,12.27-10.32
	c5.86-0.51,13.63,4.97,14.73,10.91c1.59,8.59-7.69,15.32-7.72,15.35c1.32-0.96,6.5,1.25,7.67,1.8c20.27,9.45,3.15,42.67-17.38,29.45
	c3.82,2.46-1.73,11.63-3.55,13.41c-6.03,5.9-17.7,5.45-24.25,0.11c-12.04-9.8-3.49-21.12-3.45-21.18
	c-1.94,2.57-11.7,0.74-13.92-0.29c-7.31-3.38-8.09-12.64-5.81-19.45c1.34-3.98,3.38-7.12,7.47-8.61c0.67-0.24,8.24-1.61,8.44-0.99
	c-1.01-3.15-3.53-5.5-4.2-8.97C22.07,24.54,24.3,18.93,28.15,15.35z"/>
<path class="st1" d="M45.05,45.15c1.5-1.42,3.38-2.4,5.54-2.63c9.77-1.07,15.85,13.11,7.59,18.95c-5.05,3.58-11.27,3.17-14.76-0.99
	C39.76,56.12,40.98,49.01,45.05,45.15z"/>
</svg>
